<?xml version="1.0" encoding="UTF-8"?>
<svg xmlns="http://www.w3.org/2000/svg" viewBox="0 0 512 512" width="512" height="512"><g id="outline"><path d="M80,448H432a8,8,0,0,0,8-8V152a8,8,0,0,0-8-8H80a8,8,0,0,0-8,8V440A8,8,0,0,0,80,448Zm48-288H384a8,8,0,0,1,0,16H128a8,8,0,0,1,0-16Zm-40,0h17.376A23.992,23.992,0,0,0,128,192H384a23.992,23.992,0,0,0,22.624-32H424V400H368V366.624A24,24,0,0,0,360,320H347.867A71.853,71.853,0,0,0,288,288H224a72.286,72.286,0,0,0-59.872,32H152a24,24,0,0,0-8,46.624V400H88Zm64,192a8,8,0,0,1,0-16H360a8,8,0,0,1,0,16Zm200,16v32H160V368ZM184.836,320A56.2,56.2,0,0,1,224,304h64a55.838,55.838,0,0,1,39.167,16ZM88,416H424v16H88Z"/><path d="M468,16H44A28.032,28.032,0,0,0,16,44V468a28.032,28.032,0,0,0,28,28H468a28.032,28.032,0,0,0,28-28V44A28.032,28.032,0,0,0,468,16Zm12,452a12.013,12.013,0,0,1-12,12H44a12.013,12.013,0,0,1-12-12V128H480Zm0-356H32V44A12.013,12.013,0,0,1,44,32H468a12.013,12.013,0,0,1,12,12Z"/><path d="M256,48a24,24,0,1,0,24,24A24.027,24.027,0,0,0,256,48Zm0,32a8,8,0,1,1,8-8A8.009,8.009,0,0,1,256,80Z"/><path d="M176,48a24,24,0,1,0,24,24A24.027,24.027,0,0,0,176,48Zm0,32a8,8,0,1,1,8-8A8.009,8.009,0,0,1,176,80Z"/><path d="M336,48a24,24,0,1,0,24,24A24.027,24.027,0,0,0,336,48Zm0,32a8,8,0,1,1,8-8A8.009,8.009,0,0,1,336,80Z"/><path d="M252,264a8,8,0,0,0,16,0,28.635,28.635,0,0,0-5.236-16.939c-1.782-2.822-2.764-4.377-2.764-8.4s.981-5.572,2.764-8.394A28.632,28.632,0,0,0,268,213.334a8,8,0,0,0-16,0c0,4.018-.981,5.572-2.764,8.394a30.014,30.014,0,0,0,0,33.876C251.018,258.426,252,259.981,252,264Z"/><path d="M296,264a8,8,0,0,0,16,0,28.635,28.635,0,0,0-5.236-16.939c-1.782-2.822-2.764-4.377-2.764-8.4s.981-5.572,2.764-8.394A28.632,28.632,0,0,0,312,213.334a8,8,0,0,0-16,0c0,4.018-.981,5.572-2.764,8.394a30.014,30.014,0,0,0,0,33.876C295.018,258.426,296,259.981,296,264Z"/><path d="M208,264a8,8,0,0,0,16,0,28.635,28.635,0,0,0-5.236-16.939c-1.782-2.822-2.764-4.377-2.764-8.4s.981-5.572,2.764-8.394A28.632,28.632,0,0,0,224,213.334a8,8,0,0,0-16,0c0,4.018-.981,5.572-2.764,8.394a30.014,30.014,0,0,0,0,33.876C207.018,258.426,208,259.981,208,264Z"/></g></svg>
