<svg id="Layer_1" enable-background="new 0 0 512.002 512.002" height="512" viewBox="0 0 512.002 512.002" width="512" xmlns="http://www.w3.org/2000/svg"><g><g><path d="m302.002 40c-93.738 0-170 76.262-170 170 0 37.501 11.972 73.06 34.622 102.83 21.914 28.803 53.015 50.233 87.574 60.342.938.274 1.882.405 2.812.405 4.328 0 8.317-2.832 9.593-7.195 1.551-5.301-1.489-10.854-6.79-12.405-63.477-18.569-107.811-77.774-107.811-143.977 0-82.71 67.29-150 150-150s150 67.29 150 150c0 66.199-44.331 125.404-107.805 143.975-5.301 1.551-8.34 7.104-6.79 12.405 1.551 5.302 7.104 8.342 12.406 6.79 34.558-10.11 65.657-31.541 87.569-60.343 22.648-29.77 34.62-65.327 34.62-102.827 0-93.738-76.262-170-170-170z"/><path d="m302.002 0c-115.794 0-210 94.206-210 210 0 40.146 11.26 78.848 32.645 112.475l-109.699 103.873c-9.455 8.953-14.762 21.203-14.943 34.493-.185 13.579 5.19 26.85 14.748 36.407 9.399 9.398 22.387 14.754 35.729 14.754.227 0 .453-.002.679-.005 13.289-.181 25.539-5.488 34.494-14.944l103.872-109.698c33.621 21.385 72.323 32.645 112.475 32.645 115.794 0 210-94.206 210-210s-94.206-210-210-210zm0 400c-38.942 0-76.373-11.703-108.245-33.846-4.059-2.819-9.569-2.252-12.967 1.337l-109.659 115.81c-5.21 5.502-12.399 8.591-20.244 8.698-8.19.151-16.229-3.13-21.992-8.894-5.763-5.763-9.004-13.779-8.892-21.993.107-7.844 3.195-15.033 8.696-20.242l115.81-109.659c3.588-3.398 4.157-8.907 1.338-12.967-22.142-31.877-33.845-69.308-33.845-108.244 0-104.767 85.233-190 190-190s190 85.233 190 190-85.234 190-190 190z"/><path d="m42.706 455.164c-3.715 4.086-3.414 10.411.673 14.126l.005.005c1.915 1.741 4.321 2.6 6.72 2.6 2.719 0 5.429-1.104 7.403-3.274 3.715-4.087 3.412-10.414-.675-14.129-4.086-3.717-10.411-3.416-14.126.672z"/><path d="m302.002 360c-5.523 0-10 4.478-10 10s4.477 10 10 10h.008c5.523 0 9.996-4.478 9.996-10s-4.481-10-10.004-10z"/></g></g></svg>